<svg width="217" height="217" viewBox="0 0 217 217" fill="none" xmlns="http://www.w3.org/2000/svg">
<rect width="217" height="217" rx="44" fill="#2563EB"/>
<path d="M53.4545 147V77.1818H77.8636C82.7273 77.1818 86.7386 78.0227 89.8977 79.7045C93.0568 81.3636 95.4091 83.6023 96.9545 86.4205C98.5 89.2159 99.2727 92.3182 99.2727 95.7273C99.2727 98.7273 98.7386 101.205 97.6705 103.159C96.625 105.114 95.2386 106.659 93.5114 107.795C91.8068 108.932 89.9545 109.773 87.9545 110.318V111C90.0909 111.136 92.2386 111.886 94.3977 113.25C96.5568 114.614 98.3636 116.568 99.8182 119.114C101.273 121.659 102 124.773 102 128.455C102 131.955 101.205 135.102 99.6136 137.898C98.0227 140.693 95.5114 142.909 92.0795 144.545C88.6477 146.182 84.1818 147 78.6818 147H53.4545ZM61.9091 139.5H78.6818C84.2045 139.5 88.125 138.432 90.4432 136.295C92.7841 134.136 93.9545 131.523 93.9545 128.455C93.9545 126.091 93.3523 123.909 92.1477 121.909C90.9432 119.886 89.2273 118.273 87 117.068C84.7727 115.841 82.1364 115.227 79.0909 115.227H61.9091V139.5ZM61.9091 107.864H77.5909C80.1364 107.864 82.4318 107.364 84.4773 106.364C86.5455 105.364 88.1818 103.955 89.3864 102.136C90.6136 100.318 91.2273 98.1818 91.2273 95.7273C91.2273 92.6591 90.1591 90.0568 88.0227 87.9205C85.8864 85.7614 82.5 84.6818 77.8636 84.6818H61.9091V107.864ZM154.074 94.6364C153.665 91.1818 152.006 88.5 149.097 86.5909C146.188 84.6818 142.619 83.7273 138.392 83.7273C135.301 83.7273 132.597 84.2273 130.278 85.2273C127.983 86.2273 126.188 87.6023 124.892 89.3523C123.619 91.1023 122.983 93.0909 122.983 95.3182C122.983 97.1818 123.426 98.7841 124.312 100.125C125.222 101.443 126.381 102.545 127.79 103.432C129.199 104.295 130.676 105.011 132.222 105.58C133.767 106.125 135.188 106.568 136.483 106.909L143.574 108.818C145.392 109.295 147.415 109.955 149.642 110.795C151.892 111.636 154.04 112.784 156.085 114.239C158.153 115.67 159.858 117.511 161.199 119.761C162.54 122.011 163.21 124.773 163.21 128.045C163.21 131.818 162.222 135.227 160.244 138.273C158.29 141.318 155.426 143.739 151.653 145.534C147.903 147.33 143.347 148.227 137.983 148.227C132.983 148.227 128.653 147.42 124.994 145.807C121.358 144.193 118.494 141.943 116.403 139.057C114.335 136.17 113.165 132.818 112.892 129H121.619C121.847 131.636 122.733 133.818 124.278 135.545C125.847 137.25 127.824 138.523 130.21 139.364C132.619 140.182 135.21 140.591 137.983 140.591C141.21 140.591 144.108 140.068 146.676 139.023C149.244 137.955 151.278 136.477 152.778 134.591C154.278 132.682 155.028 130.455 155.028 127.909C155.028 125.591 154.381 123.705 153.085 122.25C151.79 120.795 150.085 119.614 147.972 118.705C145.858 117.795 143.574 117 141.119 116.318L132.528 113.864C127.074 112.295 122.756 110.057 119.574 107.148C116.392 104.239 114.801 100.432 114.801 95.7273C114.801 91.8182 115.858 88.4091 117.972 85.5C120.108 82.5682 122.972 80.2955 126.562 78.6818C130.176 77.0455 134.21 76.2273 138.665 76.2273C143.165 76.2273 147.165 77.0341 150.665 78.6477C154.165 80.2386 156.938 82.4205 158.983 85.1932C161.051 87.9659 162.142 91.1136 162.256 94.6364H154.074Z" fill="white"/>
</svg>
